<?xml version="1.0" encoding="utf-8"?>
<!-- Generator: Adobe Illustrator 15.0.0, SVG Export Plug-In . SVG Version: 6.00 Build 0)  -->
<!DOCTYPE svg PUBLIC "-//W3C//DTD SVG 1.0//EN" "http://www.w3.org/TR/2001/REC-SVG-20010904/DTD/svg10.dtd">
<svg version="1.0" id="Layer_2" xmlns="http://www.w3.org/2000/svg" xmlns:xlink="http://www.w3.org/1999/xlink" x="0px" y="0px"
	 width="255.1px" height="83px" viewBox="0 0 255.1 83" enable-background="new 0 0 255.1 83" xml:space="preserve">
<g>
	<defs>
		<rect id="SVGID_1_" x="13.6" y="9.6" width="211.9" height="63.8"/>
	</defs>
	<clipPath id="SVGID_2_">
		<use xlink:href="#SVGID_1_"  overflow="visible"/>
	</clipPath>
	<path clip-path="url(#SVGID_2_)" fill="#171A60" d="M100.1,27.9c-3.6,0-6.2,1.5-7.9,3.8v-3.2h-4.9v32h4.9V48
		c1.7,2.2,4.3,3.8,7.9,3.8c5.9,0,10.6-4.4,10.6-12C110.8,32.4,106.1,27.9,100.1,27.9 M98.9,47.2c-4.1,0-6.9-2.8-6.9-7.3
		c0-4.4,2.8-7.3,6.9-7.3c4.1,0,6.9,3,6.9,7.3S103,47.2,98.9,47.2 M121.7,28.5h6v4.2h-6v11.6c0,1.6,0.7,2.4,2.5,2.4
		c1.2,0,2.1-0.1,3.5-0.4v4.5c-1.4,0.4-3,0.6-4.4,0.6c-4.2,0-6.5-1.9-6.5-6.9v-12h-4.3v-4.2h4.3v-6.1h4.9V28.5z M141.7,27.9
		c-5.3,0-8.5,2.1-9.7,5.5l4,2.5c0.7-2.5,3-3.5,5.8-3.5c3,0,4.5,1.2,4.5,3v0.5c0,0.6-0.4,1-1.3,1.1l-6.3,0.6
		c-4.2,0.4-7.3,2.9-7.3,7.1c0,4.1,3,7.1,7.7,7.1c3.4,0,5.9-1.5,7.3-3.6v3.1h4.9V36.8C151.2,31,148.1,27.9,141.7,27.9 M146.3,42.1
		c0,2.7-2.3,5.4-6.1,5.4c-2.5,0-3.7-1.2-3.7-2.9c0-1.5,1-2.7,3.3-3l6.6-0.8V42.1z M172.8,44.6l2.8,3.9c-1.9,1.9-4.9,3.4-8.7,3.4
		c-7.1,0-11.9-4.9-11.9-11.9c0-7,4.9-12,12.1-12c3.6,0,6.4,1.3,8.5,3.3l-3,3.9c-1.4-1.4-3.2-2.4-5.6-2.4c-3.9,0-6.9,2.8-6.9,7.2
		c0,4.3,3,7.2,6.9,7.2C169.4,47.1,171.3,45.9,172.8,44.6 M189.2,27.9c-7,0-11.5,5.3-11.5,12.1c0,7,4.6,11.9,11.9,11.9
		c4.3,0,7.3-1.8,9.1-3.6l-2.3-4c-1.6,1.6-3.8,3-6.9,3c-3.3,0-6.4-1.9-6.9-5.8v0h17.5V40C200.3,32.9,196.3,27.9,189.2,27.9
		 M182.9,37.7c0.6-3.3,2.7-5.3,6.3-5.3c3.6,0,5.5,2.2,5.8,5.3H182.9z M215.6,38.4l9.9,12.9h-6.4l-6.8-9.6l-2.9,2.9v6.7h-4.9v-32h4.9
		v19.1l9.4-10h6.7L215.6,38.4z M142.7,25.9h-4.3l4.5-6.6h6.2L142.7,25.9z M163.6,25.9l-5.2-6.6h5.2l3.2,4.1l3.2-4.1h5l-5.3,6.6
		H163.6z"/>
	<path clip-path="url(#SVGID_2_)" fill="#171A60" d="M37.6,48.3c0,1.2-1,2.2-2.2,2.2c-1.2,0-2.2-1-2.2-2.2c0-1.2,1-2.2,2.2-2.2
		C36.6,46.1,37.6,47.1,37.6,48.3 M77.3,41.5c0,17.6-14.3,31.9-31.9,31.9c-17.6,0-31.9-14.3-31.9-31.9c0-17.6,14.3-31.9,31.9-31.9
		c7.8,0,15,2.8,20.5,7.5l5.1-3.2l-2.7,5.4C73.9,25.1,77.3,32.9,77.3,41.5 M60.3,35.7h12.9c-1-4.9-3.3-9.4-6.5-13L60.3,35.7z
		 M38.9,40h-1.7c-5.2,0-9.4,4.2-9.4,9.3c0,3.1,1.2,5.7,3.5,7.5c1.9,1.5,4.5,2.4,7.2,2.4c4.3,0,6-1.5,9.9-4.7l0,0
		c5.2-4.9,16.1-15.2,16.1-15.2h-9.9l7.8-15.8L45.7,34l-10.4-7.7L38.9,40z M29.6,17.9l16.2,12L62.9,19c-4.8-3.8-10.9-6-17.5-6
		C39.6,13,34.1,14.8,29.6,17.9 M21.8,57.2l2.9-5c-0.2-0.9-0.3-1.9-0.3-2.9c0-6.1,4.3-11.2,10.1-12.5l-5-18.8
		C21.9,23.1,17,31.7,17,41.5C17,47.3,18.7,52.7,21.8,57.2 M73.9,41.5c0-1.9-0.2-3.8-0.6-5.6c-1.6,1.5-11.6,10.7-22.5,21.1
		c-4.1,3.4-6.7,5.6-12.2,5.6c-4.2,0-8.4-1.6-11.2-4.8l-5.5-0.3C27.1,65,35.7,70,45.4,70C61.1,70,73.9,57.2,73.9,41.5"/>
	<path clip-path="url(#SVGID_2_)" fill="#F16722" d="M54.8,39.1l7.8-15.8L45.7,34l-10.4-7.7L38.9,40h-1.7c-5.2,0-9.4,4.2-9.4,9.3
		c0,3.1,1.2,5.7,3.5,7.5c1.9,1.5,4.5,2.4,7.2,2.4c4.3,0,6-1.5,9.9-4.7l0,0c5.2-4.9,16.1-15.2,16.1-15.2H54.8z M35.4,50.5
		c-1.2,0-2.2-1-2.2-2.2c0-1.2,1-2.2,2.2-2.2c1.2,0,2.2,1,2.2,2.2C37.6,49.5,36.6,50.5,35.4,50.5"/>
</g>
</svg>
